<?xml version="1.0" standalone="no"?>
<!DOCTYPE svg PUBLIC "-//W3C//DTD SVG 20010904//EN"
 "http://www.w3.org/TR/2001/REC-SVG-20010904/DTD/svg10.dtd">
<svg version="1.0" xmlns="http://www.w3.org/2000/svg"
 width="512.000000pt" height="512.000000pt" viewBox="0 0 512.000000 512.000000"
 preserveAspectRatio="xMidYMid meet">

<g transform="translate(0.000000,512.000000) scale(0.100000,-0.100000)"
fill="#000000" stroke="none">
<path d="M4855 5106 c-39 -17 -82 -67 -109 -126 -17 -36 -21 -65 -21 -150 0
-58 4 -117 8 -133 7 -26 6 -27 -20 -20 -16 4 -75 8 -133 8 -86 0 -113 -4 -151
-22 -152 -69 -214 -224 -173 -433 l5 -25 -133 0 c-126 0 -136 -2 -190 -28 -61
-30 -105 -74 -140 -140 -21 -38 -23 -56 -23 -180 l0 -138 -34 6 c-53 10 -184
8 -227 -4 -96 -26 -180 -108 -209 -204 -16 -55 -19 -167 -6 -235 8 -41 7 -43
-13 -38 -68 16 -175 17 -236 2 -113 -29 -180 -90 -187 -173 -5 -61 20 -110 73
-140 51 -30 87 -29 152 4 52 26 55 27 125 14 198 -35 239 -35 309 1 21 10 50
37 65 60 35 52 41 139 19 257 -20 107 -21 160 -1 167 8 4 72 -4 141 -16 138
-25 190 -23 253 10 63 32 101 102 101 184 0 23 -9 93 -21 155 -11 62 -18 119
-15 127 7 19 74 18 172 -2 157 -33 269 -3 313 84 31 61 34 111 15 218 -10 55
-18 119 -19 144 0 44 1 45 33 48 18 2 67 -4 108 -12 235 -49 354 10 362 179 2
39 -3 109 -12 156 -21 113 -20 144 6 179 29 40 30 119 2 157 -48 63 -126 88
-189 59z"/>
<path d="M2819 4987 c-21 -14 -41 -41 -53 -70 -17 -41 -18 -53 -8 -95 24 -93
32 -213 22 -319 -29 -281 -140 -512 -374 -771 -71 -78 -81 -101 -73 -164 7
-55 35 -89 89 -112 78 -32 108 -20 213 88 314 322 482 762 445 1161 -12 123
-30 204 -55 241 -42 64 -142 84 -206 41z"/>
<path d="M3613 4689 c-129 -27 -159 -200 -47 -270 60 -37 157 -18 198 38 30
40 33 124 8 165 -34 55 -96 81 -159 67z"/>
<path d="M2079 4457 c-123 -82 -66 -269 81 -269 80 0 138 53 147 133 8 87 -58
159 -147 159 -32 0 -58 -7 -81 -23z"/>
<path d="M1570 3594 c-36 -84 -89 -243 -115 -343 -181 -722 -20 -1474 444
-2071 71 -92 251 -277 344 -355 l58 -48 222 83 c122 45 257 96 300 112 l77 30
-57 61 c-273 296 -502 716 -608 1119 -68 259 -103 559 -91 783 l6 120 -279
279 -280 280 -21 -50z"/>
<path d="M4675 3630 c-71 -15 -117 -72 -117 -145 0 -86 61 -145 148 -145 87 0
144 58 144 145 0 97 -82 165 -175 145z"/>
<path d="M4480 3024 c-219 -41 -321 -74 -481 -155 -132 -67 -254 -152 -382
-264 -98 -86 -119 -118 -119 -181 0 -85 61 -146 146 -146 57 0 71 9 167 97
146 134 337 249 508 304 161 52 361 66 522 35 100 -19 125 -15 174 27 67 59
68 158 1 217 -52 46 -148 65 -346 68 -91 1 -176 0 -190 -2z"/>
<path d="M846 2293 l-238 -636 12 -56 c53 -240 245 -619 434 -856 69 -86 295
-315 311 -315 13 0 596 217 604 225 2 3 -50 60 -115 128 -136 138 -216 236
-314 382 -226 338 -368 706 -431 1116 -19 119 -23 188 -23 397 -1 138 -1 252
-1 252 0 0 -107 -286 -239 -637z"/>
<path d="M2446 2718 c42 -482 198 -904 469 -1267 80 -107 255 -305 284 -321
15 -7 68 9 241 74 124 46 238 95 256 110 22 17 37 41 45 68 24 90 46 64 -649
761 -350 350 -640 637 -644 637 -4 0 -5 -28 -2 -62z"/>
<path d="M4435 2136 c-39 -17 -81 -67 -90 -105 -22 -99 84 -201 182 -176 132
33 154 217 33 277 -41 21 -83 22 -125 4z"/>
<path d="M245 692 c-144 -385 -190 -517 -189 -550 1 -69 58 -129 130 -139 33
-4 102 19 444 147 223 83 407 153 409 155 2 2 -38 50 -89 107 -193 214 -324
407 -442 646 -38 78 -70 142 -71 142 -1 0 -87 -229 -192 -508z"/>
</g>
</svg>
